<svg xmlns="http://www.w3.org/2000/svg" viewBox="0 0 512 512.00041" id="svg-dcff" class="u-svg-content"><path d="m283.03125 85.46875c-12.023438-11.980469-31.554688-11.976562-43.542969.007812-5.8125 5.8125-9.011719 13.558594-9.003906 21.808594.003906 6.652344 2.09375 12.964844 5.945313 18.1875l-41.179688 55.277344c-9.242188 12.398438-9.371094 27.632812-.5625 37.726562l-72.902344 72.878907c-2.929687 2.929687-2.929687 7.679687-.003906 10.605469 1.464844 1.464843 3.386719 2.199218 5.304688 2.199218 1.917968 0 3.839843-.734375 5.300781-2.195312l72.859375-72.835938 77.695312 77.691406-171.707031 171.652344-77.691406-77.671875 74.515625-74.515625c2.929687-2.929687 2.929687-7.679687 0-10.605468-2.929688-2.929688-7.675782-2.929688-10.601563 0l-89.59375 89.589843c-5.070312 5.054688-7.863281 11.792969-7.863281 18.976563 0 7.1875 2.792969 13.925781 7.855469 18.96875l6.480469 6.480468c-8.5625 13.445313-6.996094 31.527344 4.710937 43.230469 6.558594 6.574219 15.289063 10.195313 24.574219 10.195313h.003906c6.730469 0 13.164062-1.910156 18.691406-5.460938l6.5 6.5c5.230469 5.226563 12.101563 7.839844 18.96875 7.839844 6.871094 0 13.742188-2.613281 18.972656-7.839844l187.015626-186.960937c4.632812 3.367187 10.140624 5.0625 15.875 5.0625 6.746093 0 13.804687-2.335938 20.121093-7.027344l55.289063-41.164063c5.242187 3.855469 11.5625 5.9375 18.21875 5.9375h.023437c8.238281-.007812 15.964844-3.203124 21.742188-8.996093 5.808593-5.8125 9.007812-13.558594 9-21.808594-.003907-8.238281-3.207031-15.960937-9.011719-21.746094zm-239.410156 402.65625c-5.273438 0-10.230469-2.058594-13.964844-5.800781-5.8125-5.808594-7.230469-14.390625-4.246094-21.5625l12.882813 12.882812 12.960937 12.957031c-2.382812 1-4.96875 1.523438-7.632812 1.523438zm35.800781 5.425781-11.226563-11.21875c0-.003906 0-.003906-.003906-.003906l-19.378906-19.375-30.367188-30.355469c-2.222656-2.21875-3.449218-5.183594-3.449218-8.351562 0-3.167969 1.226562-6.132813 3.460937-8.359375l4.480469-4.480469 77.691406 77.667969-4.476562 4.476562c-4.613282 4.609375-12.117188 4.613281-16.730469 0zm241.394531-190.351562c-5.785156 4.296875-14.085937 6.183593-19.570312.714843l-2.125-2.121093c-.085938-.097657-.164063-.195313-.257813-.285157-.09375-.09375-.191406-.171874-.285156-.257812l-92.023437-92.023438c-5.480469-5.460937-3.585938-13.734374.722656-19.515624l39.648437-53.222657 127.121094 127.082031zm93.613282-42.789063c-2.953126 2.964844-6.910157 4.597656-11.140626 4.601563-.003906 0-.007812 0-.011718 0-4.238282 0-8.210938-1.636719-11.183594-4.605469l-1.296875-1.296875c0-.003906-.003906-.007813-.007813-.011719l-5.457031-5.457031-135.25-135.230469c-2.960937-2.953125-4.597656-6.90625-4.601562-11.136718-.003907-4.238282 1.632812-8.214844 4.609375-11.1875 3.074218-3.074219 7.121094-4.613282 11.164062-4.613282 4.046875 0 8.097656 1.539063 11.179688 4.613282l142.003906 141.984374c.003906.003907.007812.007813.007812.007813 2.964844 2.953125 4.597657 6.910156 4.601563 11.136719.003906 4.242187-1.632813 8.214844-4.617187 11.195312zm0 0"></path><path d="m195.25 357.523438 18.09375-18.085938c5.644531-5.644531 8.753906-13.167969 8.746094-21.183594-.007813-8-3.117188-15.503906-8.757813-21.121094-5.640625-5.636718-13.148437-8.738281-21.152343-8.738281-.007813 0-.015626 0-.023438 0-8.003906.007813-15.507812 3.117188-21.113281 8.742188l-18.125 18.089843c-5.625 5.625-8.726563 13.136719-8.726563 21.148438s3.101563 15.523438 8.726563 21.148438c5.835937 5.832031 13.503906 8.75 21.167969 8.75 7.664062 0 15.332031-2.917969 21.164062-8.75zm-36.058594-21.148438c0-4.007812 1.539063-7.75 4.328125-10.539062l18.128907-18.097657c2.789062-2.796875 6.527343-4.339843 10.519531-4.34375h.011719c4 0 7.75 1.546875 10.558593 4.351563.003907.003906.007813.003906.007813.007812 2.800781 2.789063 4.34375 6.523438 4.34375 10.511719.003906 4.003906-1.539063 7.757813-4.351563 10.566406l-18.089843 18.085938c-5.824219 5.820312-15.300782 5.820312-21.125 0-2.792969-2.792969-4.332032-6.539063-4.332032-10.542969zm0 0"></path><path d="m380.808594 137.226562c1.917968 0 3.835937-.730468 5.300781-2.191406l30.511719-30.503906c2.929687-2.929688 2.929687-7.675781 0-10.605469-2.929688-2.925781-7.675782-2.925781-10.605469 0l-30.507813 30.5c-2.929687 2.929688-2.929687 7.675781-.003906 10.605469 1.464844 1.464844 3.382813 2.195312 5.304688 2.195312zm0 0"></path><path d="m511.390625 167.039062c-1.621094-3.808593-6.023437-5.578124-9.839844-3.957031l-75.195312 32.058594c-3.8125 1.625-5.582031 6.03125-3.957031 9.839844 1.214843 2.851562 3.984374 4.5625 6.902343 4.5625.976563 0 1.976563-.195313 2.933594-.605469l75.199219-32.058594c3.8125-1.625 5.582031-6.027344 3.957031-9.839844zm0 0"></path><path d="m306.949219 89.570312c.960937.410157 1.957031.605469 2.9375.605469 2.914062 0 5.6875-1.710937 6.902343-4.558593l32.070313-75.175782c1.625-3.808594-.144531-8.214844-3.957031-9.839844-3.808594-1.621093-8.210938.148438-9.839844 3.957032l-32.066406 75.171875c-1.625 3.8125.144531 8.214843 3.953125 9.839843zm0 0"></path></svg>