<svg xmlns="http://www.w3.org/2000/svg" xmlns:xlink="http://www.w3.org/1999/xlink" version="1.1" id="svg-fb48" x="0px" y="0px" viewBox="0 0 512.045 512.045" style="enable-background:new 0 0 512.045 512.045;" xml:space="preserve" class="u-svg-content"><g><g><path d="M76.819,204.823c-4.713,0-8.533,3.82-8.533,8.533v51.2c0,4.713,3.82,8.533,8.533,8.533s8.533-3.821,8.533-8.533v-51.2    C85.352,208.643,81.532,204.823,76.819,204.823z"></path>
</g>
</g><g><g><path d="M102.419,230.423h-51.2c-4.713,0-8.533,3.82-8.533,8.533s3.82,8.533,8.533,8.533h51.2c4.713,0,8.533-3.82,8.533-8.533    S107.132,230.423,102.419,230.423z"></path>
</g>
</g><g><g><path d="M230.419,170.689h-25.6c-4.713,0-8.533,3.82-8.533,8.533s3.82,8.533,8.533,8.533h25.6c4.713,0,8.533-3.82,8.533-8.533    S235.132,170.689,230.419,170.689z"></path>
</g>
</g><g><g><path d="M187.752,179.223c-0.013-1.115-0.245-2.217-0.683-3.243c-0.434-1.033-1.04-1.986-1.792-2.816    c-0.016-0.017-0.033-0.033-0.049-0.049c-3.346-3.319-8.749-3.297-12.068,0.049c-0.754,0.829-1.36,1.782-1.792,2.816    c-0.437,1.026-0.669,2.128-0.683,3.243c-0.013,2.268,0.877,4.448,2.475,6.059c1.635,1.559,3.799,2.443,6.059,2.475h1.707    l1.707-0.683c0.544-0.187,1.06-0.445,1.536-0.768l1.28-1.024c0.367-0.406,0.709-0.833,1.024-1.28    c0.323-0.476,0.581-0.992,0.768-1.536c0.245-0.484,0.417-1.002,0.512-1.536C187.793,180.361,187.793,179.791,187.752,179.223z"></path>
</g>
</g><g><g><path d="M315.752,247.489h-34.133c-4.713,0-8.533,3.82-8.533,8.533v17.067c0,4.713,3.82,8.533,8.533,8.533s8.533-3.82,8.533-8.533    v-8.533h17.067v8.533c0,4.713,3.82,8.533,8.533,8.533s8.533-3.82,8.533-8.533v-17.067    C324.285,251.31,320.465,247.489,315.752,247.489z"></path>
</g>
</g><g><g><path d="M298.685,221.889c-4.713,0-8.533,3.82-8.533,8.533v25.6c0,4.713,3.82,8.533,8.533,8.533s8.533-3.82,8.533-8.533v-25.6    C307.219,225.71,303.398,221.889,298.685,221.889z"></path>
</g>
</g><g><g><path d="M510.739,288.876l-26.027-116.992c-6.112-25.801-29.208-43.98-55.723-43.861c-6.399,0.003-12.71-1.487-18.432-4.352    l-46.933-23.637c-8.108-4.05-17.049-6.154-26.112-6.144H174.525c-9.063-0.007-18.003,2.096-26.112,6.144l-46.933,23.637    c-5.722,2.865-12.033,4.355-18.432,4.352c-26.515-0.119-49.61,18.06-55.723,43.861L1.299,288.791    c-5.631,25.516,7.455,51.474,31.317,62.123l133.632,61.867c7.652,3.53,15.978,5.364,24.405,5.376h130.731    c8.428-0.012,16.753-1.846,24.405-5.376l133.717-61.781C503.335,340.321,516.382,314.37,510.739,288.876z M472.083,335.212    l-133.632,61.867c-5.356,2.454-11.175,3.735-17.067,3.755H190.397c-5.892-0.02-11.711-1.3-17.067-3.755L39.699,335.212    c-16.415-7.303-25.487-25.091-21.76-42.667l26.027-116.992c4.363-18.005,20.558-30.628,39.083-30.464    c9.063,0.01,18.004-2.094,26.112-6.144l46.933-23.637c5.722-2.865,12.033-4.355,18.432-4.352h162.987    c6.399-0.003,12.71,1.487,18.432,4.352l46.933,23.637c8.108,4.05,17.049,6.154,26.112,6.144    c18.493-0.124,34.642,12.491,38.997,30.464l25.856,116.992C497.57,310.121,488.498,327.909,472.083,335.212z"></path>
</g>
</g><g><g><path d="M392.552,297.58l-17.067-131.669c-2.336-16.551-16.313-28.975-33.024-29.355H169.576    c-16.739,0.386-30.726,12.855-33.024,29.44l-17.067,131.755c-1.578,27.674,16.09,52.797,42.667,60.672    c0.82,0.12,1.654,0.12,2.475,0h182.784c0.82,0.12,1.654,0.12,2.475,0C376.527,350.534,394.212,325.316,392.552,297.58z     M346.302,341.356H165.736c-17.81-5.925-29.656-22.794-29.184-41.557l17.067-131.584c1.166-8.043,7.842-14.148,15.957-14.592    h172.629c8.186,0.318,14.991,6.407,16.213,14.507l17.067,131.755C375.919,318.617,364.081,335.44,346.302,341.356z"></path>
</g>
</g><g><g><path d="M93.886,307.223h-8.533c-4.713,0-8.533,3.82-8.533,8.533s3.82,8.533,8.533,8.533h8.533c4.713,0,8.533-3.82,8.533-8.533    S98.598,307.223,93.886,307.223z"></path>
</g>
</g><g><g><path d="M409.619,179.223c-0.013-1.115-0.245-2.217-0.683-3.243c-0.434-1.033-1.04-1.986-1.792-2.816    c-0.016-0.017-0.033-0.033-0.049-0.049c-3.346-3.319-8.749-3.297-12.068,0.049c-0.754,0.829-1.36,1.782-1.792,2.816    c-0.437,1.026-0.669,2.128-0.683,3.243c-0.059,2.327,0.835,4.577,2.475,6.229l1.365,1.024c0.436,0.338,0.926,0.598,1.451,0.768    l1.536,0.512h1.707c2.318,0.012,4.551-0.875,6.229-2.475c0.367-0.406,0.709-0.833,1.024-1.28c0.323-0.476,0.581-0.992,0.768-1.536    c0.245-0.484,0.417-1.002,0.512-1.536C409.66,180.361,409.66,179.791,409.619,179.223z"></path>
</g>
</g><g><g><path d="M418.152,247.489h-8.533c-4.713,0-8.533,3.82-8.533,8.533c0,4.713,3.82,8.533,8.533,8.533h8.533    c4.713,0,8.533-3.82,8.533-8.533C426.685,251.31,422.865,247.489,418.152,247.489z"></path>
</g>
</g><g><g><path d="M460.819,247.489h-8.533c-4.713,0-8.533,3.82-8.533,8.533c0,4.713,3.821,8.533,8.533,8.533h8.533    c4.713,0,8.533-3.82,8.533-8.533C469.352,251.31,465.532,247.489,460.819,247.489z"></path>
</g>
</g><g><g><path d="M341.352,298.689H170.686c-4.713,0-8.533,3.82-8.533,8.533s3.82,8.533,8.533,8.533h170.667    c4.713,0,8.533-3.82,8.533-8.533S346.065,298.689,341.352,298.689z"></path>
</g>
</g><g><g><path d="M170.686,93.889H85.352c-18.851,0-34.133,15.282-34.133,34.133v8.533c0,4.713,3.82,8.533,8.533,8.533    s8.533-3.821,8.533-8.533v-8.533c0-9.426,7.641-17.067,17.067-17.067h85.333c4.713,0,8.533-3.82,8.533-8.533    S175.398,93.889,170.686,93.889z"></path>
</g>
</g><g><g><path d="M418.152,93.889h-85.333c-4.713,0-8.533,3.82-8.533,8.533s3.821,8.533,8.533,8.533h85.333    c9.426,0,17.067,7.641,17.067,17.067v8.533c0,4.713,3.82,8.533,8.533,8.533s8.533-3.821,8.533-8.533v-8.533    C452.285,109.171,437.003,93.889,418.152,93.889z"></path>
</g>
</g><g></g><g></g><g></g><g></g><g></g><g></g><g></g><g></g><g></g><g></g><g></g><g></g><g></g><g></g><g></g></svg>