<svg xmlns="http://www.w3.org/2000/svg" xmlns:xlink="http://www.w3.org/1999/xlink" version="1.1" id="svg-253a" x="0px" y="0px" viewBox="0 0 280.003 280.003" style="enable-background:new 0 0 280.003 280.003;" xml:space="preserve" class="u-svg-content"><path color-rendering="auto" image-rendering="auto" shape-rendering="auto" color-interpolation="sRGB" d="M49.997,0.001  c-2.761-0.035-5.029,2.175-5.064,4.936c-0.013,0.992,0.27,1.965,0.812,2.796l43.953,96.701  c-26.83,16.803-44.701,46.624-44.701,80.568c0,52.408,42.592,95,95,95c52.408,0,95-42.592,95-95  c0-33.945-17.871-63.765-44.701-80.568l43.938-96.666c1.529-2.3,0.903-5.404-1.397-6.932c-0.84-0.558-1.83-0.85-2.839-0.835h-60  c-2.271-0.03-4.277,1.474-4.885,3.662l-25.115,55.254L114.878,3.655c-0.61-2.184-2.614-3.684-4.881-3.654H49.997z M57.763,10.001  h9.016l39.24,86.283c-2.571,0.987-5.091,2.08-7.549,3.279L57.763,10.001z M77.763,10.001h29.014l36.391,80.06  c-1.053-0.035-2.109-0.059-3.17-0.059c-8.435,0-16.613,1.11-24.402,3.18L77.763,10.001L77.763,10.001z M173.218,10.001h29.014  l-37.811,83.188c-3.199-0.851-6.462-1.543-9.783-2.059l-9.148-20.127L173.218,10.001z M213.218,10.001h9.014l-40.707,89.562  c-2.452-1.196-4.965-2.286-7.529-3.271L213.218,10.001z M139.997,100.002c47.003,0,85,37.997,85,85c0,47.003-37.997,85-85,85  c-47.003,0-85-37.997-85-85C54.997,137.999,92.994,100.002,139.997,100.002z M139.997,113.87c-39.226,0-71.133,31.907-71.133,71.133  c0,39.226,31.907,71.131,71.133,71.131c39.226,0,71.133-31.905,71.133-71.131C211.13,145.776,179.224,113.87,139.997,113.87z   M139.997,123.87c33.822,0,61.133,27.311,61.133,61.133c0,33.822-27.311,61.131-61.133,61.131  c-33.822,0-61.133-27.309-61.133-61.131C78.864,151.181,106.175,123.87,139.997,123.87z M140.173,150.262  c-1.881-0.065-3.638,0.931-4.549,2.578l-8.973,16.242l-19.07,4.08c-2.7,0.578-4.421,3.236-3.842,5.937  c0.19,0.887,0.618,1.705,1.237,2.368l12.674,13.553l-2.012,19.396c-0.284,2.747,1.712,5.205,4.459,5.489  c0.902,0.093,1.812-0.06,2.633-0.444l16.807-7.865l17.826,7.906c0.629,0.279,1.31,0.426,1.998,0.43  c2.762,0.015,5.013-2.211,5.028-4.973c0.001-0.215-0.011-0.429-0.038-0.642l-2.287-18.414l13.029-14.51  c1.845-2.055,1.674-5.217-0.381-7.062c-0.675-0.606-1.502-1.017-2.392-1.188l-18.219-3.516l-9.773-16.875  C143.464,151.262,141.894,150.321,140.173,150.262L140.173,150.262z M140.103,165.413l6.486,11.199  c0.726,1.253,1.959,2.13,3.381,2.404l11.777,2.271l-8.646,9.629c-0.967,1.077-1.42,2.52-1.242,3.957l1.48,11.904l-11.832-5.248  c-1.323-0.586-2.836-0.571-4.146,0.043l-10.863,5.086l1.334-12.875c0.149-1.439-0.332-2.872-1.32-3.93l-8.193-8.762l12.654-2.709  c1.415-0.303,2.63-1.204,3.33-2.471L140.103,165.413z"></path><g></g><g></g><g></g><g></g><g></g><g></g><g></g><g></g><g></g><g></g><g></g><g></g><g></g><g></g><g></g></svg>